<?xml version="1.0" encoding="UTF-8"?>
<svg width="200px" height="150px" viewBox="0 0 200 150" version="1.1" xmlns="http://www.w3.org/2000/svg" xmlns:xlink="http://www.w3.org/1999/xlink">
  <g stroke="none" stroke-width="1" fill="none" fill-rule="evenodd">
    <g transform="translate(30, 15)">
      <!-- Device 1 (computer) -->
      <rect x="0" y="30" width="60" height="45" rx="2" fill="#6366F1" />
      <rect x="0" y="75" width="60" height="10" rx="1" fill="#4F46E5" />
      <rect x="25" y="75" width="10" height="5" rx="1" fill="#818CF8" />
      <rect x="5" y="35" width="50" height="35" rx="1" fill="#C7D2FE" />
      
      <!-- Device 2 (mobile) -->
      <rect x="120" y="40" width="30" height="50" rx="3" fill="#3B82F6" />
      <rect x="123" y="45" width="24" height="35" rx="1" fill="#BFDBFE" />
      <circle cx="135" cy="85" r="2" fill="#DBEAFE" />
      
      <!-- Connection lines -->
      <path d="M60,55 C90,55 90,55 120,55" stroke="#10B981" stroke-width="2" stroke-dasharray="5,3" />
      <path d="M60,60 C90,60 90,65 120,65" stroke="#10B981" stroke-width="2" stroke-dasharray="5,3" />
      
      <!-- Animated elements -->
      <circle cx="75" cy="55" r="5" fill="#34D399">
        <animate attributeName="cx" from="60" to="120" dur="3s" repeatCount="indefinite" />
      </circle>
      <circle cx="90" cy="65" r="5" fill="#34D399">
        <animate attributeName="cx" from="120" to="60" dur="3s" repeatCount="indefinite" />
      </circle>
      
      <!-- Cloud -->
      <circle cx="90" cy="20" r="12" fill="#E5E7EB" />
      <circle cx="100" cy="25" r="12" fill="#E5E7EB" />
      <circle cx="80" cy="25" r="12" fill="#E5E7EB" />
      <rect x="80" y="20" width="20" height="15" fill="#E5E7EB" />
      
      <!-- Happy face -->
      <circle cx="135" cy="20" r="12" fill="#FCD34D" />
      <circle cx="130" cy="17" r="2" fill="#1E293B" />
      <circle cx="140" cy="17" r="2" fill="#1E293B" />
      <path d="M129,23 Q135,27 141,23" stroke="#1E293B" stroke-width="2" fill="none" />
      
      <!-- Extra decorations -->
      <path d="M15,15 L25,5 L30,10 L20,20 Z" fill="#EC4899" />
      <circle cx="40" cy="15" r="8" fill="#8B5CF6" opacity="0.7" />
    </g>
  </g>
</svg>