<?xml version="1.0" encoding="UTF-8"?>
<svg width="200px" height="150px" viewBox="0 0 200 150" version="1.1" xmlns="http://www.w3.org/2000/svg" xmlns:xlink="http://www.w3.org/1999/xlink">
  <g stroke="none" stroke-width="1" fill="none" fill-rule="evenodd">
    <g transform="translate(35, 10)">
      <!-- Calendar background -->
      <rect x="0" y="20" width="130" height="110" rx="6" fill="#FFFFFF" stroke="#E5E7EB" stroke-width="2" />
      
      <!-- Calendar header -->
      <rect x="0" y="20" width="130" height="25" rx="6" fill="#F59E0B" />
      <rect x="0" y="35" width="130" height="10" rx="0" fill="#F59E0B" />
      
      <!-- Calendar top clips -->
      <rect x="30" y="10" width="10" height="15" rx="2" fill="#6366F1" />
      <rect x="90" y="10" width="10" height="15" rx="2" fill="#6366F1" />
      
      <!-- Calendar days -->
      <rect x="10" y="55" width="20" height="20" rx="2" fill="#F3F4F6" />
      <rect x="40" y="55" width="20" height="20" rx="2" fill="#F3F4F6" />
      <rect x="70" y="55" width="20" height="20" rx="2" fill="#F3F4F6" />
      <rect x="100" y="55" width="20" height="20" rx="2" fill="#F3F4F6" />
      
      <rect x="10" y="85" width="20" height="20" rx="2" fill="#F3F4F6" />
      <rect x="40" y="85" width="20" height="20" rx="2" fill="#F3F4F6" />
      <rect x="70" y="85" width="20" height="20" rx="2" fill="#EF4444" />
      <text x="80" y="99" font-family="Arial" font-size="12" fill="#FFFFFF" text-anchor="middle">15</text>
      <rect x="100" y="85" width="20" height="20" rx="2" fill="#F3F4F6" />
      
      <!-- Party elements -->
      <circle cx="120" cy="20" r="15" fill="#4ADE80" opacity="0.9" />
      <text x="120" y="25" font-family="Arial" font-size="16" fill="#064E3B" text-anchor="middle">🎉</text>
      
      <path d="M80,15 L90,5 L95,10 L85,20 Z" fill="#EC4899" />
      <circle cx="10" cy="30" r="8" fill="#8B5CF6" opacity="0.7" />
      <circle cx="120" cy="100" r="8" fill="#3B82F6" opacity="0.7" />
      
      <!-- Happy face -->
      <circle cx="20" cy="110" r="12" fill="#FCD34D" />
      <circle cx="15" cy="107" r="2" fill="#1E293B" />
      <circle cx="25" cy="107" r="2" fill="#1E293B" />
      <path d="M14,113 Q20,117 26,113" stroke="#1E293B" stroke-width="2" fill="none" />
    </g>
  </g>
</svg>