<?xml version="1.0" encoding="UTF-8"?>
<svg width="200px" height="150px" viewBox="0 0 200 150" version="1.1" xmlns="http://www.w3.org/2000/svg" xmlns:xlink="http://www.w3.org/1999/xlink">
  <g stroke="none" stroke-width="1" fill="none" fill-rule="evenodd">
    <g transform="translate(40, 15)">
      <!-- Main gear -->
      <circle cx="60" cy="60" r="40" fill="#E5E7EB" />
      <circle cx="60" cy="60" r="30" fill="#9CA3AF" />
      <circle cx="60" cy="60" r="15" fill="#F3F4F6" />
      <circle cx="60" cy="60" r="10" fill="#6B7280" />
      
      <!-- Gear teeth -->
      <rect x="58" y="10" width="4" height="15" rx="1" fill="#6B7280" />
      <rect x="58" y="95" width="4" height="15" rx="1" fill="#6B7280" />
      <rect x="10" y="58" width="15" height="4" rx="1" fill="#6B7280" />
      <rect x="95" y="58" width="15" height="4" rx="1" fill="#6B7280" />
      
      <!-- Diagonal gear teeth -->
      <rect x="25" y="25" width="15" height="4" rx="1" fill="#6B7280" transform="rotate(-45 25 25)" />
      <rect x="82" y="82" width="15" height="4" rx="1" fill="#6B7280" transform="rotate(-45 82 82)" />
      <rect x="82" y="25" width="15" height="4" rx="1" fill="#6B7280" transform="rotate(45 82 25)" />
      <rect x="25" y="82" width="15" height="4" rx="1" fill="#6B7280" transform="rotate(45 25 82)" />
      
      <!-- Small gears -->
      <circle cx="105" cy="30" r="12" fill="#6366F1" />
      <circle cx="105" cy="30" r="5" fill="#C7D2FE" />
      <rect x="104" y="15" width="2" height="5" rx="1" fill="#4F46E5" />
      <rect x="104" y="40" width="2" height="5" rx="1" fill="#4F46E5" />
      <rect x="90" y="29" width="5" height="2" rx="1" fill="#4F46E5" />
      <rect x="115" y="29" width="5" height="2" rx="1" fill="#4F46E5" />
      
      <circle cx="20" cy="90" r="10" fill="#EF4444" />
      <circle cx="20" cy="90" r="4" fill="#FEE2E2" />
      <rect x="19" y="77" width="2" height="5" rx="1" fill="#B91C1C" />
      <rect x="19" y="98" width="2" height="5" rx="1" fill="#B91C1C" />
      <rect x="7" y="89" width="5" height="2" rx="1" fill="#B91C1C" />
      <rect x="28" y="89" width="5" height="2" rx="1" fill="#B91C1C" />
      
      <!-- Decorative elements -->
      <circle cx="100" cy="95" r="12" fill="#FCD34D" />
      <circle cx="95" cy="92" r="2" fill="#1E293B" />
      <circle cx="105" cy="92" r="2" fill="#1E293B" />
      <path d="M94,98 Q100,102 106,98" stroke="#1E293B" stroke-width="2" fill="none" />
      
      <path d="M10,10 L20,0 L25,5 L15,15 Z" fill="#EC4899" />
      <circle cx="115" cy="65" r="8" fill="#8B5CF6" opacity="0.7" />
    </g>
  </g>
</svg>